<?xml version="1.0" ?><svg xmlns="http://www.w3.org/2000/svg" xmlns:ev="http://www.w3.org/2001/xml-events" xmlns:xlink="http://www.w3.org/1999/xlink" baseProfile="tiny" height="2048" version="1.2" width="1582"><style>
  .flame {
    animation: flicker 1.5s infinite ease-in-out alternate;
    transform-origin: bottom left;
  }

  @keyframes flicker {
    0%   { transform: scale(1) skewY(0deg) translateY(0); }
    50%  { transform: scale(1.02) skewY(1deg) translateY(-2px); }
    100% { transform: scale(0.98) skewY(-1deg) translateY(1px); }
  }
</style><defs/><g class="flame"><polygon fill="red" points="166,1767 166,1768 163,1771 163,1772 162,1773 161,1773 161,1774 158,1777 157,1777 154,1780 153,1780 150,1783 149,1783 148,1784 147,1784 145,1786 143,1786 142,1787 141,1787 140,1788 139,1788 138,1789 137,1789 136,1790 135,1790 132,1793 132,1794 131,1795 131,1796 130,1797 130,1799 128,1801 128,1803 127,1804 127,1805 126,1806 126,1807 125,1808 125,1809 124,1810 124,1811 123,1812 123,1815 122,1816 121,1816 120,1817 119,1817 119,1818 118,1819 117,1819 112,1824 111,1824 107,1828 107,1829 108,1828 110,1828 112,1826 114,1826 116,1824 118,1824 120,1822 122,1822 124,1820 126,1820 127,1819 129,1819 130,1818 134,1818 135,1817 137,1817 138,1816 140,1816 141,1815 142,1815 142,1814 143,1813 144,1813 145,1812 146,1812 146,1811 150,1807 150,1806 152,1804 152,1803 154,1801 154,1800 156,1798 156,1797 157,1796 157,1794 158,1793 158,1792 159,1791 159,1790 160,1789 160,1787 161,1786 161,1784 162,1783 162,1782 163,1781 163,1780 164,1779 164,1777 165,1776 165,1775 166,1774 166,1772 167,1771 167,1770 168,1769 168,1767"/><polygon fill="red" points="146,1719 144,1721 142,1721 142,1722 141,1723 140,1723 136,1727 136,1728 134,1730 134,1731 133,1732 133,1733 131,1735 131,1736 130,1737 130,1738 128,1740 128,1742 127,1743 126,1743 126,1744 125,1745 125,1747 123,1749 123,1751 121,1753 121,1754 120,1755 120,1756 119,1757 119,1759 117,1761 117,1762 115,1764 115,1765 113,1767 113,1768 112,1769 112,1770 111,1771 111,1772 110,1773 109,1773 102,1780 102,1782 101,1783 101,1786 100,1787 100,1790 99,1791 99,1794 97,1796 97,1798 95,1800 95,1801 93,1803 93,1805 92,1806 91,1806 90,1805 90,1804 91,1803 91,1801 93,1799 93,1797 94,1796 94,1795 95,1794 95,1792 96,1791 96,1787 97,1786 97,1785 98,1784 98,1766 97,1765 97,1764 96,1763 96,1760 95,1761 95,1762 94,1763 94,1764 93,1765 93,1766 91,1768 91,1770 90,1771 89,1771 89,1772 87,1774 87,1775 75,1787 74,1787 71,1790 70,1790 68,1792 67,1792 66,1793 65,1793 65,1794 64,1795 62,1795 60,1797 58,1797 56,1799 54,1799 53,1800 52,1800 51,1801 49,1801 48,1802 46,1802 45,1803 43,1803 42,1804 39,1804 38,1805 36,1805 35,1806 25,1806 24,1805 24,1804 26,1802 26,1801 27,1800 27,1799 28,1798 28,1796 29,1795 29,1793 30,1792 30,1789 31,1788 31,1784 30,1784 24,1790 23,1790 20,1793 19,1793 18,1794 17,1794 16,1795 14,1795 10,1791 10,1790 8,1788 8,1786 7,1785 7,1782 6,1781 6,1780 5,1779 5,1772 4,1771 4,1769 5,1768 5,1760 6,1759 6,1757 7,1756 7,1754 8,1753 8,1752 9,1751 9,1750 11,1748 11,1746 13,1744 13,1743 10,1743 9,1744 8,1744 7,1745 6,1745 4,1747 2,1747 2,1748 1,1749 0,1749 0,1846 2,1846 3,1847 2,1848 0,1848 0,1857 1,1857 2,1856 4,1856 5,1855 6,1856 6,1857 5,1858 3,1858 1,1860 0,1860 0,2047 261,2047 262,2046 263,2047 352,2047 353,2046 354,2047 353,2046 353,2045 354,2044 354,2043 355,2042 355,2040 356,2039 356,2036 357,2035 357,2012 358,2011 358,2008 357,2009 356,2009 346,2019 346,2020 345,2021 344,2021 343,2022 343,2023 342,2024 341,2024 338,2027 337,2027 336,2028 326,2028 325,2029 323,2029 322,2028 312,2028 311,2027 311,2020 312,2019 312,2015 310,2015 310,2016 309,2017 308,2017 306,2019 305,2019 303,2021 302,2021 299,2024 298,2024 297,2025 289,2025 288,2024 287,2024 285,2022 285,2021 283,2019 283,2018 284,2017 283,2016 284,2015 285,2015 285,2012 286,2011 287,2011 287,2010 288,2009 288,2008 292,2004 292,2003 293,2002 293,2001 291,2001 290,2002 287,2002 286,2003 284,2003 283,2004 281,2004 280,2005 278,2005 276,2007 275,2007 274,2008 272,2008 271,2009 270,2009 268,2011 266,2011 264,2013 262,2013 261,2014 260,2014 259,2015 256,2015 255,2016 256,2017 256,2018 255,2019 254,2019 251,2016 251,2015 250,2014 250,2005 251,2004 251,2003 252,2002 252,2001 253,2000 253,1998 255,1996 255,1995 257,1993 257,1991 258,1990 251,1990 250,1991 240,1991 239,1992 238,1992 237,1993 230,1993 229,1992 228,1992 227,1991 223,1991 222,1990 222,1989 221,1988 222,1987 222,1985 223,1984 223,1982 224,1981 224,1978 222,1978 220,1980 219,1980 218,1981 216,1981 215,1982 212,1982 211,1983 210,1983 209,1982 208,1982 207,1981 207,1975 208,1974 208,1972 209,1971 209,1968 210,1967 210,1966 211,1965 211,1964 212,1963 213,1963 213,1962 218,1957 218,1956 219,1955 220,1955 227,1948 227,1947 216,1947 215,1948 210,1948 209,1949 204,1949 203,1950 202,1950 201,1951 200,1951 199,1952 196,1952 195,1951 196,1950 196,1949 198,1947 198,1946 199,1945 200,1945 200,1944 202,1942 202,1940 203,1939 204,1939 204,1938 205,1937 205,1936 206,1935 207,1935 207,1933 209,1931 209,1929 211,1927 211,1924 213,1922 213,1919 214,1918 214,1910 214,1911 213,1912 213,1914 212,1915 212,1917 211,1918 211,1920 210,1921 210,1922 208,1924 208,1925 207,1926 207,1927 204,1930 204,1931 203,1932 202,1932 202,1933 196,1939 195,1939 192,1942 191,1942 188,1945 186,1945 185,1946 183,1946 182,1945 182,1943 181,1942 181,1936 180,1935 180,1925 181,1924 181,1919 182,1918 182,1917 183,1916 183,1912 184,1911 184,1910 185,1909 185,1908 186,1907 186,1906 187,1905 187,1902 188,1901 188,1899 189,1898 189,1897 190,1896 190,1894 191,1893 191,1892 192,1891 192,1889 193,1888 193,1885 194,1884 194,1882 193,1882 193,1883 192,1884 191,1884 191,1885 190,1886 189,1886 185,1890 184,1890 184,1891 183,1892 182,1892 178,1896 177,1896 174,1899 173,1899 170,1902 169,1902 167,1904 166,1904 166,1905 165,1906 163,1906 161,1908 160,1908 160,1909 159,1910 157,1908 157,1906 156,1905 156,1895 157,1894 157,1889 158,1888 158,1886 159,1885 159,1883 160,1882 160,1881 161,1880 161,1879 162,1878 162,1877 163,1876 163,1875 164,1874 164,1873 165,1872 165,1871 168,1868 168,1866 170,1864 170,1862 172,1860 172,1858 174,1856 174,1853 176,1851 176,1847 177,1846 177,1845 178,1844 178,1840 179,1839 179,1836 180,1835 180,1834 179,1833 179,1832 179,1833 178,1834 178,1836 177,1837 177,1838 176,1839 176,1841 174,1843 174,1844 171,1847 171,1848 167,1852 166,1852 164,1854 163,1854 163,1855 162,1856 160,1856 160,1857 159,1858 158,1858 157,1859 156,1859 155,1860 153,1860 151,1862 149,1862 148,1863 147,1863 145,1865 143,1865 142,1866 141,1866 140,1867 139,1867 137,1869 135,1869 133,1871 132,1871 131,1872 130,1872 129,1873 128,1873 125,1876 124,1876 117,1883 117,1884 115,1886 115,1887 114,1888 113,1888 113,1890 110,1893 110,1895 109,1896 108,1896 107,1895 108,1894 108,1892 109,1891 109,1890 110,1889 110,1888 113,1885 113,1884 118,1879 118,1878 122,1874 122,1873 123,1872 123,1871 124,1870 124,1860 125,1859 125,1858 126,1857 126,1852 128,1850 128,1848 130,1846 130,1844 131,1843 131,1842 133,1840 133,1839 135,1837 135,1836 139,1832 139,1831 140,1830 141,1830 145,1826 146,1826 146,1825 147,1824 148,1824 150,1822 152,1822 154,1820 155,1820 156,1819 143,1819 142,1820 140,1820 139,1821 136,1821 135,1822 134,1822 133,1823 130,1823 129,1824 127,1824 126,1825 125,1825 124,1826 121,1826 120,1827 119,1827 118,1828 115,1828 113,1830 110,1830 109,1831 108,1831 107,1832 105,1832 104,1833 103,1833 102,1834 100,1834 98,1836 95,1836 94,1837 93,1837 92,1838 91,1838 90,1839 89,1839 88,1840 87,1839 87,1838 89,1836 90,1836 91,1835 93,1835 95,1833 96,1833 97,1832 98,1832 98,1831 99,1830 100,1830 101,1829 102,1829 105,1826 106,1826 106,1825 107,1824 108,1824 108,1823 109,1822 110,1822 110,1821 112,1819 113,1819 114,1818 114,1817 116,1815 116,1814 118,1812 118,1811 120,1809 120,1808 122,1806 122,1804 124,1802 124,1800 126,1798 126,1793 128,1791 128,1788 129,1787 129,1785 130,1784 130,1781 131,1780 131,1776 132,1775 132,1773 133,1772 133,1767 134,1766 134,1763 135,1762 135,1758 136,1757 136,1754 137,1753 137,1750 138,1749 138,1745 139,1744 139,1741 140,1740 140,1737 141,1736 141,1733 142,1732 142,1730 143,1729 143,1728 144,1727 144,1725 145,1724 145,1723 146,1722"/><polygon fill="red" points="10,1659 10,1660 8,1662 8,1663 7,1664 7,1665 5,1667 5,1668 4,1669 4,1670 3,1671 2,1671 2,1672 0,1674 0,1679 0,1678 2,1676 2,1675 4,1673 4,1672 5,1671 6,1672 6,1674 4,1676 4,1677 2,1679 2,1680 1,1681 0,1681 0,1699 0,1698 1,1697 1,1696 2,1695 2,1694 3,1693 3,1691 4,1690 4,1689 5,1688 5,1686 6,1685 6,1684 7,1683 7,1680 8,1679 8,1677 9,1676 9,1671 10,1670 10,1667 11,1666 11,1659"/><polygon fill="red" points="107,1601 106,1602 104,1602 103,1603 102,1603 101,1604 100,1604 99,1605 98,1605 97,1606 96,1606 94,1608 93,1608 90,1611 89,1611 83,1617 83,1618 80,1621 80,1622 77,1625 77,1626 76,1627 76,1628 74,1630 74,1631 73,1632 73,1634 74,1633 74,1632 78,1628 79,1629 79,1630 77,1632 77,1633 75,1635 81,1635 82,1634 84,1634 85,1633 87,1633 88,1632 89,1632 91,1630 92,1630 92,1629 93,1628 94,1628 94,1627 95,1626 94,1626 93,1625 91,1625 90,1626 88,1624 96,1616 96,1615 97,1614 98,1614 98,1613 104,1607 104,1606 105,1605 106,1605 106,1604 109,1601"/><polygon fill="red" points="7,1433 0,1440 0,1467 1,1466 1,1465 2,1464 2,1463 3,1462 3,1461 4,1460 4,1459 5,1458 5,1456 6,1455 6,1453 7,1452 7,1449 8,1448 8,1433"/><polygon fill="red" points="112,1410 112,1411 111,1412 111,1413 110,1414 110,1415 108,1417 108,1418 105,1421 105,1422 102,1425 102,1426 101,1427 100,1427 100,1428 93,1435 93,1436 91,1438 91,1439 90,1440 90,1441 89,1442 89,1443 88,1444 88,1445 87,1446 87,1449 86,1450 86,1453 99,1440 100,1440 100,1439 104,1435 104,1434 107,1431 107,1429 108,1428 108,1427 109,1426 109,1425 110,1424 110,1423 111,1422 111,1419 112,1418 112,1413 113,1412 113,1410"/><polygon fill="red" points="34,1327 33,1328 33,1329 32,1330 32,1334 31,1335 31,1336 30,1337 30,1339 28,1341 28,1342 25,1345 25,1346 24,1347 23,1347 23,1348 22,1349 21,1349 17,1353 17,1354 16,1355 16,1356 15,1357 15,1359 16,1360 16,1361 17,1362 17,1367 18,1368 18,1370 19,1371 19,1392 18,1393 18,1395 17,1396 17,1400 16,1401 16,1402 15,1403 15,1405 14,1406 13,1405 13,1399 14,1398 14,1397 15,1396 15,1382 16,1381 16,1377 15,1376 15,1364 14,1363 14,1362 13,1361 13,1353 12,1352 12,1350 11,1349 10,1349 10,1350 9,1351 9,1352 8,1353 8,1354 7,1355 7,1356 6,1357 6,1358 4,1360 4,1361 3,1362 3,1363 2,1364 2,1365 0,1367 0,1374 1,1374 2,1373 4,1373 6,1371 7,1371 8,1370 10,1370 11,1371 11,1376 10,1377 10,1381 8,1383 8,1385 6,1387 6,1389 4,1391 4,1392 1,1395 1,1396 0,1397 0,1410 1,1411 0,1412 0,1436 1,1436 1,1435 4,1432 4,1431 7,1428 7,1427 9,1425 10,1426 10,1429 11,1430 11,1435 12,1436 13,1436 13,1435 16,1432 17,1432 18,1433 17,1434 17,1435 15,1437 15,1439 13,1441 13,1442 12,1443 12,1444 11,1445 12,1446 11,1447 11,1448 10,1449 10,1452 9,1453 9,1458 10,1459 9,1460 8,1460 8,1461 6,1463 6,1465 5,1466 4,1466 4,1468 1,1471 1,1472 0,1473 0,1478 1,1479 1,1480 0,1481 0,1504 1,1504 2,1505 1,1506 0,1506 0,1513 1,1514 0,1515 0,1539 1,1539 2,1538 3,1538 4,1537 5,1537 6,1536 7,1536 8,1535 9,1535 10,1536 10,1537 9,1538 7,1538 5,1540 3,1540 1,1542 0,1542 0,1549 2,1549 3,1550 2,1551 1,1551 0,1552 0,1561 1,1561 4,1558 5,1558 13,1550 13,1549 14,1548 15,1548 15,1547 18,1544 18,1543 20,1541 20,1539 22,1537 22,1535 23,1534 23,1533 24,1532 24,1526 20,1530 19,1530 19,1531 18,1532 17,1532 13,1536 10,1536 9,1535 10,1534 11,1534 11,1533 12,1532 13,1532 14,1531 15,1531 18,1528 19,1528 20,1527 20,1526 21,1525 22,1525 26,1521 27,1522 27,1531 26,1532 26,1535 25,1536 25,1537 24,1538 24,1539 23,1540 23,1541 21,1543 21,1544 19,1546 19,1547 17,1549 17,1550 11,1556 11,1557 10,1558 9,1558 9,1559 8,1560 7,1560 5,1562 4,1562 4,1563 2,1565 1,1565 0,1566 0,1581 10,1571 11,1571 12,1570 13,1570 14,1569 15,1570 15,1571 11,1575 10,1575 3,1582 2,1582 2,1583 0,1585 0,1611 6,1605 7,1605 10,1602 11,1602 12,1601 13,1601 14,1602 10,1606 9,1606 9,1607 8,1608 7,1608 0,1615 0,1619 1,1619 2,1620 0,1622 0,1670 1,1669 1,1668 2,1667 2,1666 4,1664 4,1663 6,1661 6,1660 7,1659 7,1658 8,1657 8,1656 9,1655 9,1654 11,1652 11,1651 12,1650 13,1651 13,1658 14,1659 14,1660 13,1661 13,1662 14,1663 14,1665 13,1666 13,1674 12,1675 12,1680 11,1681 11,1682 10,1683 10,1686 9,1687 9,1688 8,1689 8,1691 6,1693 6,1695 4,1697 4,1699 2,1701 2,1702 1,1703 1,1704 0,1705 0,1706 2,1704 3,1704 7,1700 8,1700 9,1699 9,1698 10,1697 11,1697 12,1698 12,1710 10,1712 10,1714 9,1715 9,1716 8,1717 8,1718 6,1720 6,1721 4,1723 4,1724 3,1725 3,1726 2,1727 2,1728 1,1729 1,1730 0,1731 0,1745 1,1744 2,1744 3,1743 4,1743 5,1742 7,1742 8,1741 9,1741 10,1740 16,1740 17,1741 17,1742 16,1743 16,1744 15,1745 15,1746 13,1748 13,1749 12,1750 12,1751 11,1752 11,1754 10,1755 10,1758 9,1759 9,1761 8,1762 8,1774 9,1775 9,1778 10,1779 10,1783 11,1784 11,1786 12,1787 12,1788 13,1789 13,1791 14,1792 17,1792 19,1790 20,1790 32,1778 33,1778 34,1779 34,1791 33,1792 33,1793 32,1794 32,1797 31,1798 31,1799 30,1800 30,1802 29,1803 30,1804 31,1803 33,1803 34,1802 39,1802 40,1801 41,1801 42,1800 47,1800 49,1798 51,1798 52,1797 53,1797 54,1796 56,1796 57,1795 58,1795 60,1793 61,1793 62,1792 63,1792 65,1790 66,1790 67,1789 68,1789 73,1784 74,1784 74,1783 75,1782 76,1782 76,1781 77,1780 78,1780 80,1778 80,1777 81,1776 82,1776 82,1773 81,1772 81,1746 82,1745 82,1740 83,1739 83,1737 84,1736 84,1733 85,1732 85,1730 86,1729 86,1727 87,1726 87,1725 88,1724 88,1723 89,1722 89,1721 90,1720 90,1719 92,1717 92,1715 94,1713 94,1712 96,1710 96,1709 97,1708 98,1708 98,1707 100,1705 100,1704 101,1703 102,1703 102,1702 107,1697 102,1697 100,1699 98,1699 97,1700 96,1700 95,1701 94,1701 92,1703 91,1703 90,1704 89,1704 88,1705 87,1705 85,1707 84,1707 81,1710 80,1710 76,1714 75,1714 68,1721 67,1721 67,1722 52,1737 51,1737 48,1740 47,1740 44,1743 43,1743 43,1744 42,1745 40,1745 39,1744 42,1741 42,1740 43,1739 43,1738 44,1737 44,1734 45,1733 45,1729 46,1728 46,1721 47,1720 47,1719 48,1718 48,1713 49,1712 49,1711 50,1710 50,1706 51,1705 51,1703 52,1702 52,1698 53,1697 53,1695 54,1694 54,1691 55,1690 55,1686 56,1685 56,1680 57,1679 57,1674 58,1673 58,1667 57,1667 57,1668 56,1669 56,1670 53,1673 53,1674 52,1675 51,1675 51,1676 49,1678 49,1679 45,1683 45,1684 44,1685 43,1685 43,1686 39,1690 39,1691 38,1692 37,1692 36,1693 36,1694 30,1700 30,1701 27,1704 27,1706 25,1708 25,1709 23,1711 23,1712 22,1713 22,1714 21,1715 19,1715 18,1714 18,1707 19,1706 18,1705 18,1688 19,1687 19,1683 20,1682 20,1679 21,1678 21,1677 22,1676 22,1674 23,1673 23,1672 24,1671 24,1670 26,1668 26,1666 28,1664 28,1663 26,1665 25,1665 25,1666 24,1667 23,1667 23,1668 22,1669 21,1669 17,1673 16,1673 15,1672 15,1671 16,1670 16,1669 17,1668 17,1665 18,1664 18,1662 20,1660 20,1659 22,1657 22,1656 26,1652 26,1651 27,1650 28,1650 28,1649 30,1647 31,1647 31,1646 32,1645 33,1645 33,1644 34,1643 35,1643 35,1642 36,1641 38,1641 42,1637 42,1636 41,1636 40,1637 32,1637 31,1638 25,1638 24,1639 23,1639 22,1640 20,1640 19,1641 17,1641 16,1642 15,1641 15,1640 16,1639 17,1639 19,1637 22,1637 28,1631 28,1630 29,1629 29,1628 30,1627 30,1626 31,1625 31,1624 32,1623 32,1622 33,1621 33,1620 35,1618 35,1617 37,1615 37,1614 38,1613 38,1612 41,1609 41,1608 43,1606 43,1605 48,1600 48,1599 49,1598 50,1598 51,1597 51,1596 52,1595 53,1595 55,1593 56,1593 56,1592 57,1591 59,1591 59,1590 60,1589 61,1589 62,1588 63,1588 64,1587 65,1587 67,1585 69,1585 70,1584 72,1584 73,1583 74,1583 75,1582 90,1582 91,1583 93,1583 93,1582 92,1582 89,1579 88,1579 87,1578 86,1578 85,1577 84,1577 83,1576 81,1576 80,1575 76,1575 75,1574 74,1574 73,1575 72,1574 56,1574 55,1575 46,1575 45,1576 38,1576 37,1577 36,1577 35,1576 37,1574 38,1574 40,1572 41,1572 42,1571 43,1571 44,1570 45,1570 48,1567 49,1567 51,1565 52,1565 53,1564 54,1564 60,1558 61,1558 65,1554 65,1553 68,1550 68,1549 70,1547 70,1546 72,1544 72,1542 73,1541 74,1541 74,1539 76,1537 76,1535 77,1534 77,1532 78,1531 78,1528 79,1527 79,1524 80,1523 80,1518 81,1517 81,1509 82,1508 82,1505 81,1504 81,1505 80,1506 80,1507 79,1508 79,1509 78,1510 78,1511 76,1513 76,1514 74,1516 74,1517 72,1519 71,1519 71,1521 70,1522 69,1522 69,1523 68,1524 67,1524 67,1525 66,1526 65,1526 65,1527 64,1528 63,1528 59,1532 57,1532 57,1533 56,1534 55,1534 53,1536 51,1536 49,1538 47,1538 46,1539 45,1539 44,1540 43,1540 42,1541 40,1541 39,1542 35,1542 34,1543 28,1543 27,1544 26,1543 26,1542 27,1541 27,1540 28,1539 29,1539 33,1535 33,1534 35,1532 35,1531 37,1529 37,1528 39,1526 39,1525 40,1524 40,1523 41,1522 41,1520 43,1518 43,1516 44,1515 44,1514 45,1513 45,1512 46,1511 46,1510 48,1508 48,1507 50,1505 50,1503 52,1501 52,1500 54,1498 54,1496 57,1493 57,1492 55,1492 54,1493 53,1493 51,1495 50,1495 49,1496 47,1496 44,1499 43,1499 40,1502 39,1502 36,1505 35,1505 32,1508 31,1508 31,1509 30,1510 29,1510 27,1512 26,1512 25,1511 28,1508 28,1507 29,1506 30,1506 30,1505 33,1502 33,1501 36,1498 36,1497 37,1496 37,1495 39,1493 39,1492 40,1491 40,1490 41,1489 41,1488 43,1486 43,1483 44,1482 44,1480 45,1479 45,1477 46,1476 46,1473 47,1472 47,1469 48,1468 48,1461 49,1460 49,1457 48,1457 47,1458 47,1459 46,1460 45,1460 45,1461 43,1463 43,1464 42,1465 41,1465 41,1466 40,1467 39,1467 39,1468 38,1469 37,1469 33,1473 31,1473 30,1474 29,1474 28,1475 27,1475 26,1476 25,1476 24,1477 20,1477 19,1478 15,1478 14,1479 12,1479 11,1478 11,1477 12,1476 13,1476 17,1472 17,1471 19,1469 19,1468 20,1467 20,1466 22,1464 22,1463 23,1462 23,1461 24,1460 24,1459 25,1458 25,1457 26,1456 26,1454 27,1453 27,1452 28,1451 28,1450 29,1449 29,1447 30,1446 30,1445 31,1444 31,1443 32,1442 32,1441 33,1440 33,1437 35,1435 35,1433 37,1431 37,1429 39,1427 39,1425 41,1423 41,1422 43,1420 43,1418 45,1416 45,1415 46,1414 46,1413 47,1412 48,1412 48,1410 47,1410 45,1412 43,1412 41,1414 40,1414 37,1417 36,1417 36,1418 35,1419 34,1419 32,1421 31,1421 31,1422 30,1423 29,1423 25,1427 24,1427 21,1430 21,1431 20,1432 19,1432 18,1433 17,1432 17,1431 20,1428 20,1427 21,1426 22,1426 26,1422 26,1421 27,1420 28,1420 29,1419 29,1418 35,1412 35,1411 36,1410 37,1410 37,1409 40,1406 40,1405 41,1404 41,1403 43,1401 43,1400 44,1399 44,1398 46,1396 46,1392 48,1390 48,1389 49,1388 49,1387 50,1386 50,1385 51,1384 51,1383 52,1382 52,1381 53,1380 53,1379 54,1378 54,1377 58,1373 58,1372 64,1366 65,1366 68,1363 69,1363 70,1362 61,1362 60,1363 56,1363 55,1364 52,1364 51,1365 50,1365 49,1366 48,1366 47,1367 45,1367 44,1368 43,1368 42,1369 41,1369 39,1371 38,1371 38,1372 37,1373 36,1373 35,1372 35,1368 36,1367 36,1365 37,1364 37,1337 36,1336 36,1333 35,1332 35,1328"/><polygon fill="red" points="25,1306 24,1307 23,1307 19,1311 18,1311 15,1314 14,1314 10,1318 9,1318 6,1321 5,1321 5,1322 4,1323 3,1323 0,1326 0,1337 0,1335 2,1333 2,1332 5,1329 6,1330 6,1331 4,1333 4,1334 3,1335 3,1336 2,1337 2,1338 1,1339 1,1340 0,1341 0,1362 0,1361 1,1360 1,1359 2,1358 2,1357 3,1356 3,1355 4,1354 4,1353 5,1352 5,1351 6,1350 6,1349 7,1348 7,1346 8,1345 8,1344 9,1343 9,1341 10,1340 10,1339 11,1338 11,1336 12,1335 12,1334 13,1333 13,1330 15,1328 15,1325 17,1323 17,1321 18,1320 18,1319 19,1318 19,1317 20,1316 20,1314 22,1312 22,1311 24,1309 24,1308 25,1307"/><polygon fill="red" points="10,1244 10,1246 7,1249 7,1250 5,1252 5,1253 3,1255 3,1256 0,1259 0,1267 0,1266 2,1264 2,1263 3,1262 3,1261 5,1259 6,1260 6,1261 5,1262 5,1263 4,1264 4,1265 2,1267 2,1268 1,1269 1,1270 0,1271 0,1323 0,1322 1,1321 1,1302 2,1301 2,1296 3,1295 3,1292 4,1291 4,1289 5,1288 5,1286 6,1285 6,1283 7,1282 7,1279 8,1278 8,1276 9,1275 9,1271 10,1270 10,1268 11,1267 11,1259 12,1258 12,1245 11,1244"/><polygon fill="red" points="43,1146 43,1148 42,1149 41,1149 41,1150 39,1152 39,1154 38,1155 38,1157 37,1158 37,1159 36,1160 36,1161 35,1162 35,1166 34,1167 34,1177 35,1176 35,1174 36,1173 37,1173 37,1171 39,1169 39,1166 40,1165 40,1163 41,1162 41,1158 42,1157 42,1154 43,1153 43,1150 44,1149 44,1146"/></g></svg>